<svg id="_77dac496b3224fc" data-name="77dac496b3224fc" xmlns="http://www.w3.org/2000/svg" width="33.662" height="28.662" viewBox="0 0 33.662 28.662">
  <path id="Path_2525" data-name="Path 2525" d="M1163.74,273.058a.527.527,0,0,0,.532-.557c0-.4-.239-.584-.728-.584h-.791v2.07h.3v-.9h.365l.008.011.567.891h.318l-.61-.923Zm-.344-.207h-.345v-.7h.437c.226,0,.483.037.483.333,0,.34-.26.367-.577.367" transform="translate(-1131.732 -246.213)" fill="#0a66c2"/>
  <path id="Path_2520" data-name="Path 2520" d="M928.026,81.605h-4.217V75c0-1.575-.028-3.6-2.193-3.6-2.2,0-2.532,1.716-2.532,3.488V81.6h-4.217V68.024h4.048V69.88h.057a4.437,4.437,0,0,1,3.995-2.194c4.274,0,5.062,2.811,5.062,6.469ZM910.107,66.167a2.447,2.447,0,1,1,2.447-2.447,2.447,2.447,0,0,1-2.447,2.447m2.109,15.438h-4.222V68.024h4.222Zm17.912-24.249H905.875a2.077,2.077,0,0,0-2.1,2.051V83.762a2.078,2.078,0,0,0,2.1,2.054h24.253a2.083,2.083,0,0,0,2.109-2.054V59.406a2.081,2.081,0,0,0-2.109-2.051" transform="translate(-903.775 -57.355)" fill="#0a66c2"/>
  <path id="Path_2526" data-name="Path 2526" d="M1154.077,264.22a1.941,1.941,0,1,0,.037,0h-.037m0,3.659a1.7,1.7,0,1,1,1.673-1.73v.029a1.665,1.665,0,0,1-1.629,1.7h-.044" transform="translate(-1122.374 -239.439)" fill="#0a66c2"/>
</svg>
